<svg xmlns="http://www.w3.org/2000/svg" xmlns:xlink="http://www.w3.org/1999/xlink" width="300" zoomAndPan="magnify" viewBox="0 0 224.87999 225" height="300" preserveAspectRatio="xMidYMid meet" version="1.0"><defs><g/><clipPath id="00ee709ced"><path d="M 0 0.0585938 L 224.761719 0.0585938 L 224.761719 224.9375 L 0 224.9375 Z M 0 0.0585938 " clip-rule="nonzero"/></clipPath><clipPath id="c7bd9c1147"><path d="M 44 101 L 161 101 L 161 224.9375 L 44 224.9375 Z M 44 101 " clip-rule="nonzero"/></clipPath><clipPath id="3c900a0aa5"><path d="M 176.402344 176.691406 L 136.925781 233.832031 L 27.878906 158.488281 L 67.355469 101.347656 Z M 176.402344 176.691406 " clip-rule="nonzero"/></clipPath><clipPath id="4a769f9879"><path d="M 137.058594 233.636719 L 44.335938 134.667969 L 67.355469 101.347656 L 160.082031 200.316406 Z M 137.058594 233.636719 " clip-rule="nonzero"/></clipPath><clipPath id="98d477476e"><path d="M 36 55 L 90 55 L 90 111 L 36 111 Z M 36 55 " clip-rule="nonzero"/></clipPath><clipPath id="e2708e4124"><path d="M 36.140625 72.25 L 55.464844 54.671875 L 90.628906 93.320312 L 71.304688 110.902344 Z M 36.140625 72.25 " clip-rule="nonzero"/></clipPath><clipPath id="c5b99a5a69"><path d="M 36.140625 72.25 L 54.890625 55.195312 L 89.8125 93.578125 L 71.0625 110.636719 Z M 36.140625 72.25 " clip-rule="nonzero"/></clipPath><clipPath id="2a6844eddd"><path d="M 19 116 L 142 116 L 142 224.9375 L 19 224.9375 Z M 19 116 " clip-rule="nonzero"/></clipPath><clipPath id="23f6a3151d"><path d="M 141.839844 229.207031 L 121.074219 247.980469 L 18.453125 134.46875 L 39.214844 115.695312 Z M 141.839844 229.207031 " clip-rule="nonzero"/></clipPath><clipPath id="4b43a952a7"><path d="M 141.839844 229.207031 L 121.6875 247.425781 L 19.476562 134.371094 L 39.628906 116.152344 Z M 141.839844 229.207031 " clip-rule="nonzero"/></clipPath><clipPath id="17515e43c1"><path d="M 43.6875 98 L 95.582031 98 L 95.582031 128.617188 L 43.6875 128.617188 Z M 43.6875 98 " clip-rule="nonzero"/></clipPath><clipPath id="f86ed700e5"><path d="M 89.808594 200.050781 L 173.300781 200.050781 L 173.300781 224.9375 L 89.808594 224.9375 Z M 89.808594 200.050781 " clip-rule="nonzero"/></clipPath></defs><g clip-path="url(#00ee709ced)"><path fill="#ffffff" d="M 0 0.0585938 L 224.878906 0.0585938 L 224.878906 232.4375 L 0 232.4375 Z M 0 0.0585938 " fill-opacity="1" fill-rule="nonzero"/><path fill="#ffffff" d="M 0 0.0585938 L 224.878906 0.0585938 L 224.878906 224.941406 L 0 224.941406 Z M 0 0.0585938 " fill-opacity="1" fill-rule="nonzero"/><path fill="#151515" d="M 0 0.0585938 L 224.878906 0.0585938 L 224.878906 224.941406 L 0 224.941406 Z M 0 0.0585938 " fill-opacity="1" fill-rule="nonzero"/></g><g fill="#ffffff" fill-opacity="1"><g transform="translate(163.814065, 173.19784)"><g><path d="M -42.484375 -116.40625 C -28.066406 -116.40625 -17.070312 -111.851562 -9.5 -102.75 C -1.9375 -93.65625 1.84375 -80.722656 1.84375 -63.953125 C 1.84375 -47.179688 -1.9375 -34.21875 -9.5 -25.0625 C -17.070312 -15.914062 -28.066406 -11.34375 -42.484375 -11.34375 L -105.515625 -11.34375 L -105.515625 -45.234375 L -42.9375 -45.234375 C -37.007812 -45.234375 -32.28125 -46.816406 -28.75 -49.984375 C -25.226562 -53.160156 -23.46875 -57.765625 -23.46875 -63.796875 C -23.46875 -69.828125 -25.253906 -74.453125 -28.828125 -77.671875 C -32.410156 -80.890625 -37.113281 -82.5 -42.9375 -82.5 L -105.515625 -82.5 L -105.515625 -116.40625 Z M -42.484375 -116.40625 "/></g></g></g><path stroke-linecap="butt" transform="matrix(0.513442, 0.545062, -0.545638, 0.513984, 63.837418, 50.859117)" fill="none" stroke-linejoin="miter" d="M -0.00350581 3.500193 L 74.087548 3.497447 " stroke="#151515" stroke-width="7" stroke-opacity="1" stroke-miterlimit="4"/><g clip-path="url(#c7bd9c1147)"><g clip-path="url(#3c900a0aa5)"><g clip-path="url(#4a769f9879)"><path fill="#329542" d="M 176.402344 176.691406 L 137.074219 233.613281 L 28.027344 158.273438 L 67.355469 101.347656 Z M 176.402344 176.691406 " fill-opacity="1" fill-rule="nonzero"/></g></g></g><g clip-path="url(#98d477476e)"><g clip-path="url(#e2708e4124)"><g clip-path="url(#c5b99a5a69)"><path fill="#151515" d="M 36.140625 72.25 L 55.464844 54.671875 L 90.628906 93.320312 L 71.304688 110.902344 Z M 36.140625 72.25 " fill-opacity="1" fill-rule="nonzero"/></g></g></g><g clip-path="url(#2a6844eddd)"><g clip-path="url(#23f6a3151d)"><g clip-path="url(#4b43a952a7)"><path fill="#151515" d="M 141.839844 229.207031 L 121.074219 247.980469 L 18.453125 134.46875 L 39.214844 115.695312 Z M 141.839844 229.207031 " fill-opacity="1" fill-rule="nonzero"/></g></g></g><g clip-path="url(#17515e43c1)"><path fill="#151515" d="M 43.6875 128.617188 L 43.6875 98.757812 L 95.941406 98.757812 L 95.941406 128.617188 Z M 43.6875 128.617188 " fill-opacity="1" fill-rule="nonzero"/></g><g clip-path="url(#f86ed700e5)"><path fill="#151515" d="M 89.808594 234.644531 L 89.808594 199.1875 L 173.785156 199.1875 L 173.785156 234.644531 Z M 89.808594 234.644531 " fill-opacity="1" fill-rule="nonzero"/></g><path stroke-linecap="butt" transform="matrix(0.51539, 0.550158, -0.547051, 0.51248, 89.232009, 117.406723)" fill="none" stroke-linejoin="miter" d="M -0.00198548 3.499821 L 82.544319 3.500939 " stroke="#151515" stroke-width="7" stroke-opacity="1" stroke-miterlimit="4"/><path stroke-linecap="butt" transform="matrix(0.513442, 0.545062, -0.545638, 0.513984, 78.448891, 50.859117)" fill="none" stroke-linejoin="miter" d="M -0.00185001 3.498437 L 74.085627 3.499484 " stroke="#151515" stroke-width="7" stroke-opacity="1" stroke-miterlimit="4"/></svg>